<svg xmlns="http://www.w3.org/2000/svg" version="1.1" viewBox="0 0 32 40" x="0px" y="0px"><title>qr</title><path d="M8.355 0c-1.295 0-2.345 1.050-2.345 2.345v27.31c0 1.295 1.050 2.345 2.345 2.345h15.291c1.295 0 2.345-1.050 2.345-2.345v-27.31c0-1.295-1.050-2.345-2.345-2.345zM9.146 4.102h13.708c0.653 0 1.183 0.529 1.183 1.183v21.41c0 0.653-0.529 1.182-1.183 1.182h-13.708c-0.653 0-1.183-0.529-1.183-1.182v-21.41c0-0.653 0.529-1.183 1.183-1.183zM9.417 9.407v4.831h4.831v-4.831zM15.505 9.407v1.464h0.99v-1.464zM17.752 9.407v4.831h4.831v-4.831zM10.407 10.397h2.851v2.851h-2.851zM18.742 10.397h2.851v2.851h-2.851zM11.003 10.992v1.66h1.66v-1.66zM19.337 10.992v1.66h1.66v-1.66zM15.505 11.455v2.783h0.99v-2.783zM17.673 15.495v4.231h-2.53v0.99h3.52v-5.221zM19.741 15.495v5.221h0.99v-5.221zM21.592 15.495v1.305h0.99v-1.305zM9.417 15.546v0.99h6.088v1.936h0.99v-2.926zM9.417 17.741v4.831h4.831v-4.831zM21.592 18.538v3.044h-1.984v0.99h2.974v-4.034zM10.407 18.731h2.851v2.851h-2.851zM11.003 19.327v1.66h1.66v-1.66zM16.793 21.582v0.99h1.87v-0.99zM16 28.636c0.719 0 1.303 0.583 1.303 1.303s-0.583 1.303-1.303 1.303c-0.719 0-1.303-0.583-1.303-1.303s0.583-1.303 1.303-1.303z"/><text x="0" y="47" fill="#000000" font-size="5px" font-weight="bold" font-family="'Helvetica Neue', Helvetica, Arial-Unicode, Arial, Sans-serif">Created by scott desmond</text><text x="0" y="52" fill="#000000" font-size="5px" font-weight="bold" font-family="'Helvetica Neue', Helvetica, Arial-Unicode, Arial, Sans-serif">from the Noun Project</text></svg>